<svg width="37" height="35" viewBox="0 0 37 35" fill="none" xmlns="http://www.w3.org/2000/svg">
<path d="M14.6237 33.6589L23.5307 29.7764C23.665 29.7178 23.8177 29.7178 23.9521 29.7764L32.8307 33.6466C33.2652 33.836 33.7096 33.4006 33.5291 32.9623L28.5175 20.7913C28.4978 20.7434 28.4853 20.6929 28.4803 20.6413L26.9208 4.52653C26.9109 4.42463 26.8716 4.32781 26.8077 4.24787L23.9473 0.672422C23.8417 0.540471 23.6411 0.54047 23.5355 0.672422L20.6723 4.25144C20.6101 4.32914 20.5712 4.42285 20.56 4.52173L18.7391 20.6502C18.7339 20.696 18.7228 20.7408 18.706 20.7836L13.922 32.9829C13.7505 33.4202 14.1931 33.8466 14.6237 33.6589Z" stroke="#003366" stroke-width="0.68" stroke-linecap="round"/>
<path d="M12.4038 18.4256V18.4104C12.4038 18.3097 12.4615 18.2179 12.5522 18.1742L19.4695 14.8437C19.505 14.8266 19.5439 14.8177 19.5832 14.8177H27.638C27.6773 14.8177 27.7162 14.8266 27.7517 14.8437L34.669 18.1742C34.7597 18.2179 34.8174 18.3097 34.8174 18.4104V20.0915" stroke="#003366" stroke-width="0.68" stroke-linecap="round"/>
<path d="M15.0405 10.4352L32.444 10.4352" stroke="#003366" stroke-width="0.68" stroke-linecap="round"/>
<path d="M12.666 18.5094H34.8159" stroke="#003366" stroke-width="0.68" stroke-linecap="round"/>
<path d="M15.0405 12.0331V10.5673C15.0405 10.3912 15.1284 10.2268 15.2748 10.1289L20.1812 6.84825C20.268 6.79024 20.37 6.75928 20.4744 6.75928H26.9963C27.1004 6.75928 27.2022 6.79011 27.2889 6.84789L32.2092 10.129C32.3559 10.2268 32.444 10.3914 32.444 10.5677V12.0331" stroke="#003366" stroke-width="0.68" stroke-linecap="round"/>
<path d="M18.7324 20.983L30.5736 26.5257C30.7821 26.6233 30.7726 26.923 30.5584 27.0071L23.7425 29.6848" stroke="#003366" stroke-width="0.68" stroke-linecap="round"/>
<path d="M28.488 20.983L16.6468 26.5257C16.4383 26.6233 16.4479 26.923 16.6621 27.0071L23.4779 29.6848" stroke="#003366" stroke-width="0.68" stroke-linecap="round"/>
<path d="M8.97754 33.8256L9.34137 18.5446C9.34374 18.4452 9.42493 18.366 9.52428 18.366H11.3755C11.4748 18.366 11.556 18.4452 11.5584 18.5446L11.9222 33.8256" stroke="#003366" stroke-width="0.68" stroke-linecap="round"/>
<path d="M6.884 6.65214L11.1658 15.7742C11.2232 15.8965 11.1445 16.0393 11.0104 16.056L9.74135 16.2146C9.70239 16.2195 9.66286 16.2127 9.62774 16.1952L7.36655 15.0646C7.31238 15.0375 7.2735 14.9872 7.26094 14.928L5.89219 8.4753C5.88447 8.43889 5.88711 8.40104 5.89983 8.36606L6.51706 6.66868C6.57754 6.50237 6.80881 6.49194 6.884 6.65214Z" fill="white" stroke="#003366" stroke-width="0.68" stroke-linecap="round"/>
<path d="M21.7699 19.2762L11.7292 18.4233C11.5945 18.4119 11.5102 18.2723 11.5627 18.1478L12.0599 16.9695C12.0752 16.9333 12.1008 16.9025 12.1335 16.8808L14.2433 15.4879C14.2938 15.4545 14.3568 15.446 14.4144 15.4647L20.6869 17.5057C20.7223 17.5172 20.7538 17.5384 20.7777 17.5669L21.9391 18.9501C22.0529 19.0857 21.9463 19.2912 21.7699 19.2762Z" fill="white" stroke="#003366" stroke-width="0.68" stroke-linecap="round"/>
<path d="M3.45495 25.8165L9.21397 17.5474C9.2912 17.4365 9.45418 17.4333 9.53574 17.541L10.3076 18.5607C10.3313 18.5921 10.3452 18.6297 10.3476 18.6689L10.4991 21.1924C10.5027 21.2529 10.4786 21.3117 10.4336 21.3522L5.52976 25.7639C5.50209 25.7888 5.46799 25.8054 5.43133 25.8119L3.65275 26.126C3.47847 26.1568 3.35381 25.9618 3.45495 25.8165Z" fill="white" stroke="#003366" stroke-width="0.68" stroke-linecap="round"/>
<path d="M11.8818 17.2228C11.8818 17.9963 11.2548 18.6233 10.4814 18.6233C9.70793 18.6233 9.08092 17.9963 9.08092 17.2228C9.08092 16.4494 9.70793 15.8224 10.4814 15.8224C11.2548 15.8224 11.8818 16.4494 11.8818 17.2228Z" fill="white" stroke="#003366" stroke-width="0.40013"/>
<path d="M10.0933 17.3627L10.4832 16.5908C10.4915 16.5744 10.5162 16.5803 10.5162 16.5987V17.1005C10.5162 17.1101 10.524 17.1179 10.5336 17.1179H10.7925C10.8056 17.1179 10.814 17.1317 10.808 17.1433L10.402 17.9319C10.3936 17.9482 10.3689 17.9421 10.3691 17.9236L10.3765 17.4057C10.3767 17.396 10.3688 17.388 10.3591 17.388H10.1089C10.0959 17.388 10.0875 17.3743 10.0933 17.3627Z" fill="#003366"/>
</svg>
