<svg width="33" height="35" viewBox="0 0 33 35" fill="none" xmlns="http://www.w3.org/2000/svg">
<path d="M11.1499 11.5581H19.786" stroke="#003366" stroke-width="0.764963" stroke-linecap="round"/>
<path d="M11.1499 8.51025H19.786" stroke="#003366" stroke-width="0.764963" stroke-linecap="round"/>
<path d="M11.1499 14.6064H19.786" stroke="#003366" stroke-width="0.764963" stroke-linecap="round"/>
<path d="M11.1499 17.6543H19.786" stroke="#003366" stroke-width="0.764963" stroke-linecap="round"/>
<path d="M23.8501 9.52637V15.5096" stroke="#003366" stroke-width="0.764963" stroke-linecap="round"/>
<path d="M23.8501 7.55068V5.68799" stroke="#003366" stroke-width="0.764963" stroke-linecap="round"/>
<path d="M17.5278 5.68818V0.382324" stroke="#003366" stroke-width="0.764963" stroke-linecap="round"/>
<path d="M17.5282 0.382324H8.89209" stroke="#003366" stroke-width="0.764963" stroke-linecap="round"/>
<path d="M23.8497 5.68799H17.5278" stroke="#003366" stroke-width="0.764963" stroke-linecap="round"/>
<path d="M23.7936 20.9849C23.7936 20.9849 11.545 20.9849 11.3757 20.9849C11.2063 20.9849 10.5342 20.7389 10.0774 20.3075C9.7089 19.9625 9.52185 19.7424 9.23076 19.2915C8.9601 18.8414 8.89254 18.5678 8.89209 18.0497V0.382324" stroke="#003366" stroke-width="0.764963" stroke-linecap="round"/>
<path d="M23.7935 20.9848V17.7109" stroke="#003366" stroke-width="0.764963" stroke-linecap="round"/>
<path d="M19.7295 0.608398L23.3984 3.88223" stroke="#003366" stroke-width="0.764963" stroke-linecap="round"/>
<path d="M0.382324 33.6805H22.3187C22.994 33.5677 23.317 33.4459 23.8123 33.1204L31.9334 27.7064C32.3705 27.1721 32.4736 26.8307 32.3068 26.1195C31.9334 25.2794 31.7467 24.9993 30.8132 24.5326C30.2513 24.2853 29.9254 24.2699 29.3197 24.5326L24.0923 27.5506C23.5409 27.9073 23.1828 27.9994 22.5054 28.0797H14.7577" stroke="#003366" stroke-width="0.764963" stroke-linecap="round"/>
<path d="M19.9851 28.08C19.9851 28.08 20.6281 27.7397 20.9185 27.5199C21.209 27.3001 21.358 27.1628 21.5719 26.8665C21.5719 26.8665 21.927 26.2215 22.0387 25.8397C22.1504 25.4579 21.9619 24.8053 21.9453 24.8129C21.7061 24.3321 21.4786 24.0661 21.1052 23.7861C20.7318 23.506 20.1274 23.3422 19.9851 23.3193H10.7438C10.1811 23.3449 9.89457 23.4236 9.43692 23.6927L5.14299 26.6798C5.14299 26.6798 4.7696 26.9598 4.58291 27.0532C4.39622 27.1465 3.92949 27.1465 3.92949 27.1465H0.382324" stroke="#003366" stroke-width="0.764963" stroke-linecap="round"/>
</svg>
