<svg height="100" width="100" xmlns="http://www.w3.org/2000/svg"><g fill="#000080"><path d="m13.996094 0c-1.38065.00014-2.49986 1.11935-2.5 2.5v67.5h-11.496094v22h11.496094v5.5c.00014 1.3806 1.11935 2.499799 2.5 2.5h72c1.38066-.000201 2.49987-1.1194 2.5-2.5v-75.875c.0265-1.11298.003998-1.776694-.732422-2.589844l-18.302734-18.30273412c-.476411-.47657-1.125019-.74066188-1.798829-.73242188zm2.5 5h48.902344l1.251953 14.568359c.104 1.21206 1.065293 2.173334 2.277343 2.277344l14.56836 1.251953v71.902344h-67v-3h63.503906v-22h-63.503906zm54.27539 4.1152344 8.609375 8.6093746-7.927734-.68164zm-54.886718 64.8847656c1.841445 0 3.226902.318522 4.154296.957031.934066.638508 1.424004 1.4907 1.470704 2.556641l-2.962891.103516c-.126766-.596294-.399983-1.022679-.820313-1.28125-.413657-.263847-1.037105-.396485-1.871093-.396485-.860676 0-1.534435.138291-2.021485.417969-.313578.179415-.470704.419918-.470703.720703 0 .274401.145889.509831.439453.705078.373626.248016 1.281526.506267 2.722657.775391 1.441131.269122 2.506154.549611 3.193359.839844.693878.284954 1.234124.678378 1.621094 1.179687.393642.496032.589844 1.110256.589844 1.84375 0 .664894-.232185 1.286725-.699219 1.867187-.467033.580463-1.128418 1.013876-1.982422 1.298829-.854003.279678-1.917073.419921-3.191406.419921-1.854789 0-3.281278-.338223-4.275391-1.013671-.994114-.680724-1.587764-1.670624-1.78125-2.96875l2.882812-.220703c.173471.765156.523701 1.326714 1.050782 1.685546.533752.358831 1.249683.539063 2.15039.539063.954082 0 1.671968-.157995 2.152344-.474609.487048-.321893.730469-.69757.730469-1.125 0-.274402-.101765-.507297-.308594-.697266-.200157-.195247-.555434-.363383-1.0625-.50586-.346938-.094984-1.136792-.26312-2.371094-.505859-1.587912-.311339-2.703247-.694621-3.34375-1.148437-.900706-.63851-1.349609-1.417752-1.349609-2.335938 0-.591016.208576-1.140481.628906-1.652344.427002-.51714 1.038074-.910563 1.832032-1.179687.800627-.269123 1.765027-.404297 2.892578-.404297zm8.527343.197266h2.8125v4.267578c.90738-.839033 1.990972-1.259766 3.251953-1.259766.647176 0 1.231552.095187 1.751954.285156.520403.18997.909709.433008 1.169922.728516.266873.295509.447605.621638.541015.980469.100055.358832.150391.917273.150391 1.671875v4.93164h-2.8125v-4.441406c0-.881248-.053402-1.440272-.160156-1.677734-.106748-.237462-.296773-.4253-.570313-.5625-.266872-.142473-.604732-.212891-1.011719-.212891-.467033 0-.883048.088162-1.25.267578-.366953.179415-.637087.452298-.810547.816407-.166802.358832-.25.892499-.25 1.599609v4.210937h-2.8125zm16.691407 3.007812c1.254315 0 2.188912.118007 2.802734.355469.613815.232185 1.046106.532375 1.292969.896484.253522.358832.378906 1.020649.378906 1.986328l-.029297 2.595703c0 .738771.04412 1.285117.13086 1.638672.093404.348278.26095.723952.507812 1.125h-2.78125c-.073395-.147754-.162776-.367972-.269531-.658203-.0467-.131924-.07958-.217545-.09961-.259765-.480375.369385-.99588.645384-1.542968.830078-.547095.184695-1.12951.277344-1.75.277344-1.094197 0-1.957964-.235432-2.591797-.705079-.627165-.469647-.941406-1.063587-.941406-1.78125 0-.474924.144742-.896239.43164-1.265625.28689-.374662.685492-.660222 1.199219-.855468.520418-.200524 1.268087-.373731 2.242187-.521485 1.314368-.195247 2.225362-.378013 2.732422-.546875v-.222656c0-.427432-.13351-.728787-.40039-.908203-.266872-.184696-.771139-.277344-1.511719-.277344-.5004 0-.8897.078021-1.169922.236328-.280223.153032-.508181.425913-.681641.816407l-2.552734-.365235c.286898-.812648.781869-1.414194 1.482422-1.804687.700552-.390493 1.740014-.585938 3.121094-.585938zm13.111328 0c1.234305 0 2.281901.383282 3.142578 1.148438.86067.765155 1.291016 1.83054 1.291016 3.197265 0 1.403665-.433437 2.496357-1.300782 3.277344-.867345.775708-1.918039 1.164063-3.152344 1.164063-.587122 0-1.121187-.092651-1.601562-.277344-.473708-.184694-.972923-.500679-1.5-.949219v4.234375h-2.8125v-11.605469h2.621094v1.236328c.34026-.422155.802349-.765449 1.382812-1.029297.580447-.263846 1.222468-.396484 1.929688-.396484zm10.728515 0c1.581247 0 2.828133.413709 3.742188 1.242188.91404.823201 1.35255 2.088518 1.3125 3.792968h-7.046875c.020002.659617.24796 1.173584.68164 1.542969.433681.364109.973919.546875 1.621094.546875.440347 0 .809128-.095186 1.109375-.285156.300225-.189969.528176-.495814.681641-.917969l2.802734.371094c-.360278.812648-.930314 1.433896-1.710937 1.861328-.773932.422154-1.744525.632813-2.91211.632813-1.848112 0-3.218105-.478469-4.105468-1.433594-.700552-.765156-1.048829-1.730282-1.048829-2.896485.000001-1.39311.46013-2.483267 1.38086-3.269531.920715-.79154 2.084422-1.1875 3.492187-1.1875zm.169922 1.703125c-.613815 0-1.121164.175742-1.521484.529297-.400313.353554-.596644.834559-.589844 1.441406h4.203125c-.020003-.643786-.228579-1.132397-.628906-1.464844-.40032-.337723-.889103-.505859-1.462891-.505859zm-11.658203.054688c-.68721 0-1.259208.210657-1.71289.632812-.453698.416877-.679688 1.036173-.679688 1.859375 0 .944572.237231 1.645793.710938 2.09961.473708.448539 1.049933.671874 1.730468.671874.653842.000001 1.199141-.205587 1.632813-.617187.43368-.416878.65039-1.098398.65039-2.042969 0-.881248-.224852-1.535459-.671875-1.96289-.447015-.427432-.999638-.640625-1.660156-.640625zm-10.638672 2.802734c-.360278.094985-.932282.207921-1.71289.339844-.780615.131924-1.28911.260073-1.529297.386719-.366953.205801-.550781.468541-.550781.785156 0 .31134.145881.579732.439453.80664.293565.226908.667403.339844 1.121093.339844.50706 0 .992753-.130685 1.453125-.394531.34026-.200524.561221-.446097.667969-.736328.07336-.18997.111328-.552968.111328-1.085938z"/><path d="m49.869141 18.951173c-2.060494.0074-2.867082.07192-4.076172.328125-6.482375 1.373603-11.416888 4.669018-14.962891 10.001952-2.705967 4.069581-3.830078 8.012309-3.830078 13.376953 0 4.795668 1.091135 8.481423 3.628906 12.230469 4.178693 6.173188 9.484614 9.270372 17.22461 10.068359 1.828093.188476 5.452524.09141 7.05664-.199219 2.615343-.473826 5.806626-1.758373 7.949219-3.203124 4.110454-2.771679 7.721219-8.066938 9.246094-13.492188 1.217942-4.333243 1.194489-8.968996-.08008-12.935547-2.27142-7.068878-8.209441-12.184166-15.927735-13.755858-1.94484-.396039-5.54618-.539247-7.429687-.289063-.683557.0908-1.526194.200639-1.863281.242188-.424281.05227-.790402.157952-1.080079.384765-.30113.235782-.464843.599972-.464843.978516 0 .294837.08571.648353.386718.978516.285975.31367.739701.682236 1.595704 1.380859.721991.589251 1.461404 1.247797 1.773437 1.550781l-.109375.01758c-1.702154.266051-3.86076.814075-5.861328 1.486328-.490595.164854-.940346.311967-1.265625.41211-.01636.005-.02386.0071-.03906.01172-.0016-.0096-.0023-.0134-.0039-.02344-.04975-.307143-.10692-.732951-.162109-1.203125-.110449-.940932-.21487-2.071275-.25-2.841797l-.07031-1.544922.376953-.177734c2.303425-1.089556 7.059375-2.158198 9.666016-2.169922.593814-.0026 1.006443-.0271 1.337891-.142578.160375-.05587.416429-.185605.498046-.472656.08507-.299203-.08113-.549444-.21289-.681641-.152058-.152106-.338817-.192648-.46875-.21875-.14958-.03005-.325119-.05045-.548828-.06445-.446811-.02798-1.090637-.03672-2.033203-.0332zm-1.064453 3.830078h.349609c5.31036-.01187 10.823639 1.946525 14.292969 4.796875l-1.1875-.433594c-.319637-.101706-.335539-.03924-1-.564453-.454927-.35955-.837754-.625413-1.169922-.800781-.159981-.08446-.315454-.162104-.486328-.205078-.170875-.04297-.363941-.04363-.548828.02734v-.002c-.110437.04238-.260163.117244-.371094.265625-.130758.174908-.152884.373432-.111328.556641.02038.08983.09457.145499.134765.220703-1.077963-.184825-2.241965-.325849-4.160156-.392528l-2.296875-.080078-1.484375-1.560547zm-9.472657 1.287109c.01184.175037.02513.321689.03516.523438.01915.385718.04344.759687.06836 1.054687.01233.146036.02447.273074.03711.378907.01114.09328.01638.1741.05078.28125.000089.000278.01355.05761.0293.15625.01668.104483.03605.244821.05664.404297.04132.320081.08802.723764.128906 1.11914.04091.395658.07618.785661.09766 1.072265.0056.07529.0066.119012.0098.177734-.07174.03799-.136729.07214-.236328.125-.296207.157195-.698775.367957-1.134766.59375-1.907422.987809-3.888885 2.19626-5.121093 3.128906-.167947.127121-.315019.234994-.460938.34375-.04307-.335552-.08446-.747866-.128906-1.515625l-.08008-1.386718.583984-.767579c1.650016-2.136139 3.740409-4.224143 6.064453-5.689452zm15.486328 4.492188c.457803.0043 1.01076.02158 1.578125.04883 1.135089.0545 2.358994.14976 3.09961.251953l1.103515.15039.488282.544922c1.259348 1.400702 2.999601 4.227296 3.865234 6.30664.01744.0419.02693.0697.04297.109375-.151877-.04929-.24943-.09627-.464844-.15039-.566936-.142446-1.271789-.296838-2.027344-.445313-1.511264-.29698-3.216662-.570525-4.388672-.675781l-.755859-.06836-.865234-1.769531c-.556051-1.136953-1.429444-2.694156-1.986329-3.53125l-.5-.751952c.197345-.01221.439472-.02304.810547-.01953zm-3.849609.240234.386719.486327c.892903 1.120863 1.916755 2.76363 2.736328 4.402344.208552.416993.362198.735918.458984.962891.02195.05148.03135.08107.04687.123047-.01081.000285-.0064.0019-.01758.002-.938259.0053-2.438367.265557-4.082031.644531-1.644078.379068-3.407821.879712-4.78125 1.390625-.472526.175778-.935877.347691-1.292969.478516-.237946.08717-.317721.114137-.429687.154296-.267768-.738075-1.388973-4.643463-1.613282-5.669921l-.169921-.783203.210937-.08984c1.823054-.78146 5.598831-1.764745 7.732422-2.007812h.002zm13.173828 1.263671 1.226563.439453c1.285964.54626 1.190794.468992 1.90039 1.382813 1.133568 1.459811 1.914302 3.71906 2.462891 6.228515-.06909-.0566-.12501-.114134-.207031-.171875-.326402-.229777-.769882-.484399-1.316407-.761718-.152638-.07745-.312815-.181858-.427734-.271485-.04833-.03769-.09462-.08437-.126953-.11914-.0103-.01108-.01712-.02017-.02539-.0293-.07324-.169898-.422896-.994954-.798828-1.884766-.792634-1.876125-1.492558-3.121688-2.6875-4.8125zm-23.853516 1.769531c.0067.09159.01697.176946.03711.291016.02616.148178.06262.334072.107422.550781.08941.43252.209957.98703.345703 1.576172.271417 1.177973.596182 2.4919.816406 3.267578l.232422.816407-1.121094.597656c-1.567915.836207-3.477643 2.013873-4.777343 2.878906v-.08594l-.789063.5625c-.162435.115448-.294029.204215-.427734.294922-.0021-.0059-.0037-.0075-.0059-.01367-.118269-.335504-.269391-.823796-.427694-1.390624-.316597-1.133638-.666556-2.578082-.898438-3.775391-.07625-.393699-.13644-.676807-.154297-.849609-.01852-.179244-.01141-.201479.02148-.265626.02008-.03917.126146-.160799.341797-.33789s.534496-.416356.978515-.746094c1.422719-1.056535 3.204616-2.149444 4.898438-3 .326887-.164032.585754-.278001.769531-.351562.02236-.0089.03263-.01182.05273-.01953zm-9.75 2.851563.03906.591797-.369141.488281c.116002-.385776.22128-.784393.330078-1.080078zm37.109376 2.125c.0023.0054.01185.02976.01172.0293-.000065-.000232.0078.04118.0078.04102-.000018-.000164-.0078.0958-.0078.0957.000014-.000048-.04299.08402-.04297.08398.000005-.000008-.01373.01144-.02148.01758-.09829-.0875-.184506-.18809-.175781-.167969zm-12.039063.382812c.03992.09652.08407.20159.138672.34375.137253.357326.312378.839764.501953 1.375.379252 1.070763.814114 2.356335 1.103516 3.294922l.55664 1.808594-1.169922.06055c-3.159434.168126-6.241394.804554-8.714843 1.8125-.269057.109642-.532252.211122-.730469.28125-.015.0053-.02297.0068-.03711.01172-.01855-.03306-.0295-.04946-.05078-.08984-.132245-.250955-.30198-.613598-.470703-1.011719-.303396-.715898-.814463-2.048067-1.24414-3.21875-.214831-.585324-.410421-1.132511-.550782-1.542969-.05856-.171244-.10049-.303019-.136718-.417968.09647-.05448.203461-.113476.371093-.189453.431123-.195405 1.055796-.43848 1.757813-.683594 1.404167-.490277 3.135006-.998432 4.357422-1.242188.709639-.141504 1.875115-.31577 2.857422-.439453.49136-.06186.938869-.11129 1.259765-.138672.0871-.0074.135263-.0099.201172-.01367zm2.722656.0059c1.589365.02983 4.469965.505558 6.554688 1.140625.495085.150818.793604.262182.935547.33789.155931.08317.126735.06192.183593.171875.04119.07965.13608.335491.232422.666016.09634.330525.202472.746826.302735 1.197266.200934.902713.392774 1.97175.511718 2.90625.06061.476192.110648.971235.142578 1.380859.02762.354388.03178.608091.03125.71875l-.199218-.07227c-1.186902-.432339-3.471646-.975398-5.333985-1.28125l-1.1875-.195312-.507812-1.832031c-.33031-1.192889-.854416-2.86712-1.179688-3.767579-.238085-.6591-.383358-1.075661-.486328-1.371093zm-27.416015.96875c.0064.04119.01399.06862.01953.111328.13343 1.027584.92802 4.354969 1.271484 5.314453.04967.138731.09421.278317.128907.398438-.308183.227007-.761341.534414-1.230469.935546-.282795.241804-.551301.500015-.75586.78711-.143657.201621-.172688.469823-.205078.730468-.316578-1.53535-.522594-3.178441-.583984-4.90039-.04524-1.26902-.04547-2.078619 0-2.494141.01294-.118394.02176-.124367.03516-.169922.03473-.0054.0723.0022.105469-.0078v.002c.102796-.03109.204294-.07558.310547-.128906.211173-.106.444284-.251607.677734-.425782.08524-.0636.147634-.09868.226563-.152343zm39.072265 1.167969c.08619.525886.263413.961523.31836 1.511718.180502 1.807462-.135706 3.94986-.669922 6.208985-.08741-.09102-.100002-.228445-.203125-.304688-.140488-.103868-.174015-.15285-.181641-.167969-.0085-.01676-.0219-.05389-.01758-.216796.018-.67857-.09932-1.913507-.275391-3.310547-.15843-1.257118-.374065-2.575641-.589843-3.691407.424103.148419.751683.242546 1.070312.226563.166332-.0084.370637-.05676.53125-.210938.01362-.01307.0054-.03124.01758-.04492zm-27.421875 1.603515c.0024.0062.0035.0093.0059.01563.08485.224117.190128.527138.292968.84375.218551.672847.782864 2.228223 1.269532 3.5.241554.631238.462469 1.212651.621093 1.640625.05599.151064.0921.254181.13086.361328-.0032.0019-.0045.002-.0078.0039-.205328.122081-.49981.285493-.822265.457031-1.46153.777488-3.694377 2.218964-4.931641 3.1875-.198726.155562-.372192.285408-.523438.396484-.07763-.114443-.15546-.226219-.253906-.384765-.275163-.443154-.60055-1.011349-.832031-1.470704-.46748-.927689-1.314788-2.937634-1.664063-3.949218l-.125-.359375 1.035157-.742188c1.15355-.829239 2.692291-1.80045 3.955078-2.529297.63156-.364518 1.196288-.672002 1.599609-.865234.109367-.0524.167984-.07117.25-.105469zm16.00586 5.685507v.002c.05496.181281.125185.449677.203125.759766.155483.618602.334598 1.412444.472656 2.121093.07232.371212.213161 1.3578.328125 2.28125.05749.461825.110407.912388.148437 1.275391.0272.259623.0346.389086.04297.517578-.07847.0068-.08253.01172-.253906.01172-.521461 0-1.702252.136375-3.916016.585938l-.01563.002-.0098.0039-3.322227.806552-.611328-.953126c-.907787-1.411946-1.750435-2.785643-2.363281-3.835937-.306474-.525231-.556375-.969898-.72461-1.292969-.04305-.08267-.06406-.130208-.0957-.195312.0689-.03152.11052-.05463.201172-.0918.370715-.151996.902403-.341287 1.494141-.535156 1.183605-.38778 2.618085-.792904 3.529297-.96875.668574-.129022 1.953479-.284626 3.072265-.384766.559041-.05004 1.082075-.0848 1.46875-.101563.148718-.0064.252345-.0075.351563-.0078zm-28.515625.08594c.000484.0083.0052.01333.0059.02148.00063.0036-.0026.0061-.002.0098zm31.140625.09961c.240327.02984.504384.06503.822265.111328 1.591127.23174 3.977625.796538 4.962891 1.162109l.394531.146485.0078 1.273437c.0053.873983-.03086 2.219885-.07813 2.945313-.03922.602049-.07422.937316-.128907 1.148437-.05576.215266-.122977.336518-.30664.611328-.117003.175068-.201883.286082-.259766.345704-.05788.05962-.07694.06549-.103516.07227-.02706.0069-.318367-.008-.863281-.166015l-.0059-.002-2.072266-.507812-.01172-.0039-.01563-.0039c-.581836-.115676-1.10412-.216774-1.330078-.259765-.01929-.08586-.0586-.316496-.0957-.769532-.12306-1.502864-.447705-3.731725-.787109-5.414062-.0537-.266161-.09165-.480882-.128906-.689453zm-27.882813.02734c.780281 1.88066 1.778741 4.017084 2.447266 5.138671.233936.392477.446366.750901.599609 1.013672.03039.05211.04787.08104.07227.123047-.0059.0063-.0093.0089-.01563.01563-.160297.168308-.38169.397574-.626953.646485-.265575.269516-.506366.546246-.691407.791015-.09187.121519-.171958.235239-.236328.345703-.05575.09567-.127687.221223-.146484.394532-.009.0826-.0176.248191.04687.419921-1.420604-1.599888-2.623998-3.395274-3.421875-5.287109-.366985-.870159-.613448-1.900789-.873047-2.912109.02408.02673.03886.05839.06445.08398.15796.157955.322554.351128.617188.402344.168502.02928.315553-.0092.425781-.05273.10371-.04091.190943-.09085.285156-.144532.264337-.15062.75906-.490074 1.1875-.802734.158981-.11602.186689-.125815.265625-.175781zm35.980469 1.6875c-.0212.09535-.0527.194067-.07422.289062l.01367-.267578zm-23.138672 1.269532c.140626.318038.314593.673809.662109 1.279297.452814.788949 1.050529 1.780898 1.71875 2.847656.411706.657257.784686 1.269442 1.054688 1.720703.09833.16435.163767.27768.230469.392578-.162509.104611-.367718.22977-.607422.361328-.599942.329267-1.738302 1.070657-2.605469 1.691407l-1.208984.867187-1.310547-1.251953c-.729713-.696836-1.779834-1.800736-2.638672-2.751953-.42942-.475611-.811931-.91533-1.082031-1.242188-.08631-.104446-.137074-.172169-.197266-.25.13956-.120562.322094-.269756.554687-.447265.514365-.392548 1.198451-.879391 1.847657-1.300781.758143-.492103 1.762566-1.04958 2.572265-1.453126.404639-.201667.76453-.367244 1.00586-.460937.0019-.000743.002-.0012.0039-.002zm-8.066406 5.267578c.885037 1.129439 2.755218 3.065721 4.207031 4.367188.511523.45855.893502.82629 1.128906 1.078124.05222.05587.06802.08082.103516.123047-.09217.11335-.205537.247689-.318359.375-.100001.11284-.196706.210645-.275391.283203-.04349-.01413-.08032-.02515-.134766-.04492-.186636-.06777-.433515-.165041-.703125-.277344-.539164-.224585-1.173328-.510884-1.644531-.748047-1.977068-.995086-3.811711-2.46271-5.392578-4.173828.06185.04158.12468.07977.193359.0957.302257.07014.608463.03332 1.164063-.0078.159891-.01187.276583-.07743.34375-.111328.0913-.04607.184474-.101465.285156-.166015.20312-.130234.434933-.299332.662109-.484375zm24.070312.914062h.113282c.292158 0 .743844.03748 2.009765.205079.450212.0596.684918.104617.939453.15039-.04103.04163-.06355.07093-.109375.115235-.330773.319809-.77845.708609-1.253906 1.09375-.660733.535222-1.237005.913753-1.748047 1.24414.02738-.932356.05221-1.867438.04883-2.808594zm-2.236328.0059v4.142538c-.999338.503918-1.949917.941265-2.929687 1.275391-.02839-.02814-.04534-.0416-.08008-.07813-.173907-.182802-.415092-.457561-.685545-.783199-.541122-.651533-1.209033-1.510941-1.789063-2.322265-.312372-.436936-.544945-.753718-.685547-.966797-.02096-.03176-.02555-.04404-.04102-.07031.129941-.04382.276949-.08966.537109-.171876 1.496313-.472892 3.437211-.85347 4.931641-.96875zm-8.658203 2.15039c.057.07971.108846.153724.185547.261719.228782.322129.537317.758989.871094 1.230469l.07422.105469h.0039l1.699218 2.326172c-1.235394.224529-2.418417.394901-3.888671.386718-.01066-.0035-.02022-.0073-.0332-.01172-.05195-.01767-.124453-.04335-.195312-.07813-.160655-.07885-.371685-.197654-.59375-.332032-.438766-.265506-.926307-.592472-1.251953-.826172l-.873047-.646484c.590488-.442957 1.572251-1.080271 2.49414-1.615234.499049-.289592.9655-.543323 1.302735-.708985.09016-.04429.137956-.06226.205078-.0918zm-5.679687 3.896485c.01535.0091.04042.02345.05664.0332-.02512-.0038-.05344-.0061-.07617-.0098.007-.0085.01266-.01535.01953-.02344zm4.583984.417969v.25c.02345 0-.108283-.04372-.22461-.08984.0015-.0067.0039-.02149.0039-.02148-.000022.000042.05473-.07426.05469-.07422-.000042.000039.05085-.03519.05078-.03516-.00013.000071.06076-.02349.06055-.02344-.000215.000052.02221-.0031.0293-.0039.01418-.0016.02046-.002.02539-.002z"/></g></svg>
