<svg width="100" height="100" xmlns="http://www.w3.org/2000/svg">

 <g>
  <title>Layer 1</title>
  <g id="svg_1" fill="#000080">
   <path fill="#000000" id="svg_2" d="m13.99609,0c-1.38065,0.00014 -2.49986,1.11935 -2.5,2.5l0,67.5l-11.49609,0l0,22l11.49609,0l0,5.5c0.00014,1.3806 1.11935,2.4998 2.5,2.5l72,0c1.38065,-0.0002 2.49986,-1.1194 2.5,-2.5l0,-75.875c0.0265,-1.11298 0.004,-1.77669 -0.73242,-2.58984l-18.30273,-18.30274c-0.47641,-0.47657 -1.12502,-0.74066 -1.79883,-0.73242l-53.66602,0zm2.5,5l48.90235,0l1.25195,14.56836c0.104,1.21206 1.06529,2.17333 2.27734,2.27734l14.56837,1.25196l0,71.90234l-67,0l0,-3l63.50391,0l0,-22l-63.50391,0l0,-65zm54.27539,4.11523l8.60938,8.60938l-7.92773,-0.68164l-0.68166,-7.92774zm-54.88671,64.88477c1.84144,0 3.2269,0.31852 4.15429,0.95703c0.93407,0.63851 1.42401,1.4907 1.47071,2.55664l-2.9629,0.10352c-0.12676,-0.5963 -0.39998,-1.02267 -0.82031,-1.28125c-0.41366,-0.26385 -1.0371,-0.39648 -1.87109,-0.39648c-0.86068,0 -1.53444,0.13829 -2.02149,0.41797c-0.31357,0.17942 -0.4707,0.41992 -0.4707,0.72071c0,0.2744 0.14589,0.50983 0.43945,0.70507c0.37363,0.24802 1.28153,0.50626 2.72266,0.77539c1.44113,0.26913 2.50615,0.54961 3.19336,0.83984c0.69388,0.28495 1.23412,0.67838 1.62109,1.1797c0.39365,0.49603 0.58985,1.11024 0.58985,1.84375c0,0.66489 -0.23219,1.28672 -0.69922,1.86718c-0.46703,0.58047 -1.12842,1.01388 -1.98242,1.29883c-0.85401,0.27968 -1.91708,0.41992 -3.19141,0.41992c-1.85479,0 -3.28128,-0.33822 -4.27539,-1.01367c-0.99412,-0.68072 -1.58777,-1.67062 -1.78125,-2.96875l2.88281,-0.2207c0.17347,0.76515 0.5237,1.32671 1.05078,1.68554c0.53375,0.35884 1.24969,0.53907 2.15039,0.53907c0.95408,0 1.67197,-0.158 2.15235,-0.47461c0.48704,-0.32188 0.73047,-0.69757 0.73047,-1.125c0,-0.2744 -0.10177,-0.50729 -0.3086,-0.69727c-0.20016,-0.19524 -0.55543,-0.36338 -1.0625,-0.50586c-0.34694,-0.09499 -1.13679,-0.26312 -2.37109,-0.50586c-1.58791,-0.31134 -2.70325,-0.69463 -3.34375,-1.14843c-0.90071,-0.63851 -1.34961,-1.41776 -1.34961,-2.33595c0,-0.59102 0.20857,-1.14048 0.6289,-1.65235c0.42701,-0.51714 1.03808,-0.91055 1.83204,-1.17968c0.80062,-0.26913 1.76502,-0.4043 2.89257,-0.4043l0.00001,0zm8.52734,0.19727l2.8125,0l0,4.26757c0.90738,-0.83904 1.99097,-1.25977 3.25195,-1.25977c0.64718,0 1.23155,0.09519 1.75196,0.28515c0.5204,0.18997 0.9097,0.43301 1.16992,0.72852c0.26687,0.29551 0.4476,0.62164 0.54101,0.98047c0.10006,0.35883 0.15039,0.91727 0.15039,1.67188l0,4.93163l-2.8125,0l0,-4.4414c0,-0.88125 -0.0534,-1.44027 -0.16015,-1.67773c-0.10675,-0.23746 -0.29678,-0.4253 -0.57032,-0.5625c-0.26687,-0.14247 -0.60473,-0.21289 -1.01171,-0.21289c-0.46704,0 -0.88305,0.08817 -1.25,0.26758c-0.36696,0.17942 -0.63709,0.4523 -0.81055,0.81641c-0.1668,0.35883 -0.25,0.8925 -0.25,1.59961l0,4.21093l-2.8125,0l0,-11.60545zm16.6914,3.0078c1.25432,0 2.18892,0.11801 2.80274,0.35547c0.61381,0.23219 1.0461,0.53237 1.29297,0.89648c0.25352,0.35883 0.3789,1.02065 0.3789,1.98633l-0.02929,2.5957c0,0.73877 0.04412,1.28512 0.13086,1.63866c0.0934,0.34828 0.26095,0.72396 0.50781,1.125l-2.78125,0c-0.0734,-0.14774 -0.16278,-0.36797 -0.26953,-0.6582c-0.0467,-0.13192 -0.07958,-0.21754 -0.09961,-0.25976c-0.48038,0.36938 -0.99588,0.64538 -1.54297,0.83007c-0.5471,0.1847 -1.12951,0.27734 -1.75,0.27734c-1.0942,0 -1.95796,-0.23543 -2.5918,-0.70508c-0.62716,-0.46965 -0.9414,-1.06359 -0.9414,-1.78125c0,-0.47492 0.14474,-0.89624 0.43164,-1.26563c0.28689,-0.37466 0.68549,-0.66022 1.19922,-0.85545c0.52041,-0.20053 1.26808,-0.37373 2.24218,-0.52149c1.31437,-0.19525 2.22536,-0.37801 2.73242,-0.54688l0,-0.22266c0,-0.42743 -0.13351,-0.72879 -0.40039,-0.9082c-0.26687,-0.1847 -0.77113,-0.27734 -1.51171,-0.27734c-0.5004,0 -0.8897,0.07802 -1.16993,0.23633c-0.28022,0.15303 -0.50818,0.42591 -0.68164,0.81641l-2.55273,-0.36523c0.2869,-0.81264 0.78187,-1.41419 1.48242,-1.80468c0.70055,-0.3905 1.74001,-0.58595 3.12109,-0.58595zm13.11133,0c1.23431,0 2.2819,0.38329 3.14258,1.14845c0.86067,0.76514 1.29102,1.83054 1.29102,3.19726c0,1.40367 -0.43344,2.49636 -1.30079,3.27735c-0.86734,0.7757 -1.91803,1.16405 -3.15234,1.16405c-0.58712,0 -1.12119,-0.09264 -1.60156,-0.27734c-0.47371,-0.18469 -0.97292,-0.50067 -1.5,-0.94921l0,4.23437l-2.8125,0l0,-11.60547l2.62109,0l0,1.23633c0.34026,-0.42216 0.80235,-0.76545 1.38281,-1.0293c0.58045,-0.26384 1.22247,-0.39648 1.92969,-0.39648zm10.72852,0c1.58124,0 2.82813,0.41371 3.74219,1.2422c0.91404,0.8232 1.35255,2.08851 1.3125,3.79295l-7.04688,0c0.02,0.65962 0.24796,1.17359 0.68164,1.54298c0.43368,0.36411 0.97392,0.54688 1.62109,0.54688c0.44035,0 0.80913,-0.09518 1.10938,-0.28516c0.30022,-0.18997 0.52818,-0.49581 0.68164,-0.91797l2.80273,0.37109c-0.36027,0.81264 -0.93031,1.43389 -1.71093,1.86134c-0.77393,0.42215 -1.74453,0.6328 -2.91211,0.6328c-1.84811,0 -3.21811,-0.47847 -4.10547,-1.43359c-0.70055,-0.76515 -1.04883,-1.73029 -1.04883,-2.89648c0,-1.39311 0.46013,-2.48327 1.38086,-3.26953c0.92072,-0.79153 2.08442,-1.1875 3.49219,-1.1875zm0.16992,1.70313c-0.61382,0 -1.12116,0.17574 -1.52148,0.5293c-0.40032,0.35355 -0.59665,0.83456 -0.58985,1.44141l4.20313,0c-0.02001,-0.64378 -0.22858,-1.13239 -0.62891,-1.46484c-0.40032,-0.33772 -0.8891,-0.50586 -1.46289,-0.50586zm-11.6582,0.05469c-0.68721,0 -1.25921,0.21066 -1.71289,0.63281c-0.4537,0.41688 -0.67969,1.03618 -0.67969,1.85938c0,0.94457 0.23723,1.64579 0.71094,2.09961c0.4737,0.44854 1.04993,0.67188 1.73046,0.67188c0.65385,0 1.19915,-0.20558 1.63282,-0.61718c0.43368,-0.41689 0.65039,-1.0984 0.65039,-2.04298c0,-0.88125 -0.22485,-1.53545 -0.67188,-1.96288c-0.44701,-0.42744 -0.99964,-0.64063 -1.66015,-0.64063zm-10.63868,2.80273c-0.36027,0.09499 -0.93228,0.20793 -1.71289,0.33985c-0.78061,0.13192 -1.28911,0.26007 -1.52929,0.38672c-0.36696,0.2058 -0.55078,0.46854 -0.55078,0.78516c0,0.31133 0.14588,0.57973 0.43945,0.80663c0.29356,0.22691 0.6674,0.33985 1.12109,0.33985c0.50706,0 0.99276,-0.13069 1.45313,-0.39453c0.34026,-0.20052 0.56122,-0.4461 0.66797,-0.73633c0.07336,-0.18997 0.11132,-0.55297 0.11132,-1.08594l0,-0.44141z"/>
   <path fill="#000000" id="svg_3" d="m49.86914,18.95117c-2.06049,0.0074 -2.86708,0.07192 -4.07617,0.32813c-6.48238,1.3736 -11.41689,4.66902 -14.96289,10.00195c-2.70597,4.06958 -3.83008,8.01231 -3.83008,13.37695c0,4.79567 1.09114,8.48143 3.62891,12.23047c4.17869,6.17319 9.48461,9.27038 17.22461,10.06836c1.82809,0.18848 5.45252,0.09141 7.05664,-0.19922c2.61534,-0.47382 5.80662,-1.75837 7.94921,-3.20312c4.11046,-2.77168 7.72122,-8.06694 9.2461,-13.49219c1.21794,-4.33324 1.19449,-8.96899 -0.08008,-12.93555c-2.27142,-7.06887 -8.20944,-12.18416 -15.92774,-13.75585c-1.94484,-0.39604 -5.54618,-0.53925 -7.42968,-0.28907c-0.68356,0.0908 -1.5262,0.20064 -1.86328,0.24219c-0.42429,0.05227 -0.79041,0.15795 -1.08008,0.38477c-0.30113,0.23578 -0.46485,0.59997 -0.46485,0.97851c0,0.29484 0.08571,0.64836 0.38672,0.97852c0.28598,0.31367 0.7397,0.68223 1.59571,1.38086c0.72199,0.58925 1.4614,1.24779 1.77343,1.55078l-0.10937,0.01758c-1.70216,0.26605 -3.86076,0.81407 -5.86133,1.48633c-0.4906,0.16485 -0.94035,0.31196 -1.26563,0.41211c-0.01636,0.005 -0.02386,0.0071 -0.03906,0.01172c-0.0016,-0.0096 -0.0023,-0.0134 -0.0039,-0.02344c-0.04975,-0.30715 -0.10692,-0.73295 -0.1621,-1.20313c-0.11045,-0.94093 -0.21487,-2.07127 -0.25,-2.8418l-0.07031,-1.54492l0.37695,-0.17773c2.30342,-1.08956 7.05937,-2.1582 9.66601,-2.16992c0.59382,-0.0026 1.00645,-0.0271 1.33789,-0.14258c0.16038,-0.05587 0.41643,-0.18561 0.49805,-0.47266c0.08507,-0.2992 -0.08113,-0.54944 -0.21289,-0.68164c-0.15206,-0.1521 -0.33882,-0.19265 -0.46875,-0.21875c-0.14958,-0.03005 -0.32512,-0.05045 -0.54883,-0.06445c-0.44681,-0.02798 -1.09063,-0.03672 -2.0332,-0.0332l-0.00001,-0.00001zm-1.06445,3.83008l0.34961,0c5.31036,-0.01187 10.82364,1.94653 14.29297,4.79688l-1.1875,-0.4336c-0.31964,-0.1017 -0.33554,-0.03924 -1,-0.56445c-0.45493,-0.35955 -0.83776,-0.62541 -1.16993,-0.80078c-0.15998,-0.08446 -0.31545,-0.16211 -0.48632,-0.20508c-0.17088,-0.04297 -0.36395,-0.04363 -0.54883,0.02734l0,-0.002c-0.11044,0.04238 -0.26017,0.11724 -0.3711,0.26563c-0.13075,0.1749 -0.15288,0.37343 -0.11132,0.55664c0.02038,0.08983 0.09457,0.1455 0.13476,0.2207c-1.07796,-0.18483 -2.24196,-0.32585 -4.16016,-0.39253l-2.29687,-0.08008l-1.48438,-1.56054l-1.96093,-1.82813zm-9.47266,1.28711c0.01184,0.17504 0.02513,0.32169 0.03516,0.52344c0.01915,0.38572 0.04344,0.75969 0.06836,1.05469c0.01233,0.14603 0.02447,0.27307 0.03711,0.3789c0.01114,0.09328 0.01638,0.1741 0.05078,0.28125c0.00009,0.00028 0.01355,0.05761 0.0293,0.15625c0.01668,0.10449 0.03605,0.24482 0.05664,0.4043c0.04132,0.32008 0.08802,0.72376 0.12891,1.11914c0.04091,0.39566 0.07618,0.78566 0.09766,1.07227c0.0056,0.07529 0.0066,0.11901 0.0098,0.17773c-0.07174,0.03799 -0.13673,0.07214 -0.23633,0.125c-0.29621,0.15719 -0.69878,0.36796 -1.13477,0.59375c-1.90742,0.98781 -3.88888,2.19626 -5.12109,3.12891c-0.16795,0.12712 -0.31502,0.23499 -0.46094,0.34375c-0.04307,-0.33556 -0.08446,-0.74787 -0.1289,-1.51563l-0.08008,-1.38672l0.58398,-0.76758c1.65002,-2.13614 3.74041,-4.22414 6.06445,-5.68945l-0.00004,0zm15.48633,4.49219c0.4578,0.0043 1.01076,0.02158 1.57812,0.04883c1.13509,0.0545 2.359,0.14976 3.09961,0.25195l1.10352,0.15039l0.48828,0.54492c1.25935,1.40071 2.9996,4.2273 3.86523,6.30664c0.01744,0.0419 0.02693,0.0697 0.04298,0.10938c-0.15187,-0.04929 -0.24944,-0.09627 -0.46484,-0.15039c-0.56694,-0.14245 -1.27179,-0.29684 -2.02734,-0.44531c-1.51127,-0.29698 -3.21667,-0.57053 -4.38868,-0.67578l-0.75585,-0.06836l-0.86524,-1.76954c-0.55605,-1.13695 -1.42944,-2.69415 -1.98633,-3.53125l-0.5,-0.75195c0.19735,-0.01221 0.43947,-0.02304 0.81055,-0.01953zm-3.84961,0.24023l0.38672,0.48633c0.8929,1.12086 1.91675,2.76363 2.73633,4.40234c0.20855,0.417 0.36219,0.73592 0.45898,0.96289c0.02195,0.05148 0.03135,0.08107 0.04687,0.12305c-0.01081,0.00029 -0.0064,0.0019 -0.01758,0.002c-0.93826,0.0053 -2.43837,0.26556 -4.08203,0.64453c-1.64408,0.37907 -3.40782,0.87971 -4.78125,1.39063c-0.47253,0.17578 -0.93588,0.34769 -1.29297,0.47851c-0.23794,0.08717 -0.31772,0.11414 -0.42969,0.1543c-0.26776,-0.73808 -1.38897,-4.64346 -1.61328,-5.66992l-0.16992,-0.7832l0.21094,-0.08984c1.82305,-0.78146 5.59883,-1.76475 7.73242,-2.00782l0.002,0l0.81246,-0.0938zm13.17383,1.26367l1.22656,0.43946c1.28596,0.54626 1.19079,0.46899 1.90039,1.38281c1.13357,1.45981 1.9143,3.71906 2.46289,6.22852c-0.06909,-0.0566 -0.12502,-0.11414 -0.20703,-0.17188c-0.3264,-0.22978 -0.76988,-0.4844 -1.31641,-0.76172c-0.15263,-0.07745 -0.31281,-0.18186 -0.42773,-0.27148c-0.04833,-0.03769 -0.09462,-0.08437 -0.12695,-0.11914c-0.0103,-0.01108 -0.01712,-0.02017 -0.02539,-0.0293c-0.07323,-0.1699 -0.4229,-0.99496 -0.79883,-1.88477c-0.79264,-1.87612 -1.49256,-3.12169 -2.6875,-4.8125zm-23.85352,1.76953c0.0067,0.09159 0.01697,0.17695 0.03711,0.29102c0.02616,0.14818 0.06262,0.33407 0.10742,0.55078c0.08941,0.43252 0.20996,0.98703 0.34571,1.57617c0.27141,1.17798 0.59618,2.4919 0.8164,3.26758l0.23243,0.81641l-1.1211,0.59766c-1.56791,0.8362 -3.47764,2.01387 -4.77734,2.8789l0,-0.08594l-0.78906,0.5625c-0.16244,0.11545 -0.29403,0.20422 -0.42774,0.29492c-0.0021,-0.0059 -0.0037,-0.0075 -0.0059,-0.01367c-0.11827,-0.3355 -0.26939,-0.82379 -0.42769,-1.39062c-0.3166,-1.13364 -0.66656,-2.57808 -0.89844,-3.77539c-0.07625,-0.3937 -0.13644,-0.67681 -0.1543,-0.84961c-0.01852,-0.17925 -0.01141,-0.20148 0.02148,-0.26563c0.02008,-0.03917 0.12615,-0.1608 0.3418,-0.33789s0.5345,-0.41635 0.97851,-0.74609c1.42272,-1.05654 3.20462,-2.14945 4.89844,-3c0.32689,-0.16403 0.58576,-0.278 0.76953,-0.35156c0.02236,-0.0089 0.03263,-0.01182 0.05273,-0.01953l0.00001,-0.00001zm-9.75,2.85157l0.03906,0.59179l-0.36914,0.48829c0.116,-0.38578 0.22128,-0.7844 0.33008,-1.08008zm37.10938,2.125c0.0023,0.0054 0.01186,0.02976 0.01172,0.0293c-0.00007,-0.00023 0.0078,0.04118 0.0078,0.04102c-0.00002,-0.00017 -0.0078,0.0958 -0.0078,0.0957c0.00002,-0.00005 -0.04298,0.08402 -0.04297,0.08398c0,-0.00001 -0.01373,0.01144 -0.02148,0.01758c-0.09829,-0.0875 -0.18451,-0.18809 -0.17578,-0.16797l0.22851,-0.09961zm-12.03907,0.38281c0.03992,0.09652 0.08407,0.20159 0.13868,0.34375c0.13725,0.35733 0.31237,0.83976 0.50195,1.375c0.37925,1.07076 0.81411,2.35634 1.10351,3.29492l0.55664,1.8086l-1.16992,0.06055c-3.15943,0.16812 -6.24139,0.80455 -8.71484,1.8125c-0.26906,0.10964 -0.53225,0.21112 -0.73047,0.28125c-0.015,0.0053 -0.02297,0.0068 -0.03711,0.01172c-0.01855,-0.03306 -0.0295,-0.04946 -0.05078,-0.08984c-0.13224,-0.25096 -0.30198,-0.6136 -0.4707,-1.01172c-0.3034,-0.7159 -0.81447,-2.04807 -1.24414,-3.21875c-0.21483,-0.58533 -0.41042,-1.13251 -0.55078,-1.54297c-0.05856,-0.17125 -0.10049,-0.30302 -0.13672,-0.41797c0.09647,-0.05448 0.20346,-0.11348 0.37109,-0.18945c0.43112,-0.19541 1.0558,-0.43848 1.75781,-0.6836c1.40417,-0.49027 3.13501,-0.99843 4.35743,-1.24218c0.70963,-0.14151 1.87511,-0.31577 2.85742,-0.43946c0.49136,-0.06186 0.93887,-0.11129 1.25976,-0.13867c0.0871,-0.0074 0.13527,-0.0099 0.20117,-0.01367l0,-0.00001zm2.72266,0.0059c1.58936,0.02983 4.46996,0.50556 6.55469,1.14062c0.49508,0.15082 0.7936,0.26219 0.93554,0.3379c0.15594,0.08317 0.12674,0.06192 0.1836,0.17187c0.04119,0.07965 0.13608,0.33549 0.23242,0.66602c0.09634,0.33052 0.20247,0.74682 0.30273,1.19726c0.20094,0.90272 0.39278,1.97175 0.51172,2.90625c0.06062,0.47619 0.11066,0.97124 0.14259,1.38086c0.02762,0.35439 0.03178,0.60809 0.03125,0.71875l-0.19922,-0.07227c-1.1869,-0.43234 -3.47165,-0.9754 -5.33398,-1.28125l-1.1875,-0.19531l-0.50781,-1.83203c-0.33031,-1.19289 -0.85442,-2.86712 -1.17969,-3.76758c-0.23809,-0.6591 -0.38336,-1.07566 -0.48633,-1.37109zm-27.41602,0.96875c0.0064,0.04119 0.01399,0.06862 0.01953,0.11133c0.13343,1.02758 0.92802,4.35497 1.27149,5.31445c0.04967,0.13873 0.09421,0.27832 0.12891,0.39844c-0.30819,0.22701 -0.76135,0.53441 -1.23047,0.93555c-0.2828,0.2418 -0.5513,0.50001 -0.75586,0.78711c-0.14366,0.20162 -0.17269,0.46982 -0.20508,0.73046c-0.31658,-1.53535 -0.5226,-3.17844 -0.58399,-4.90039c-0.04524,-1.26902 -0.04547,-2.07862 0,-2.49414c0.01294,-0.11839 0.02176,-0.12436 0.03516,-0.16992c0.03473,-0.0054 0.0723,0.0022 0.10547,-0.0078l0,0.002c0.1028,-0.03109 0.2043,-0.07558 0.31055,-0.12891c0.21117,-0.106 0.44428,-0.2516 0.67773,-0.42578c0.08524,-0.0636 0.14764,-0.09868 0.22657,-0.15234l-0.00001,-0.00006zm39.07227,1.16797c0.08619,0.52589 0.26341,0.96152 0.31836,1.51172c0.1805,1.80746 -0.13571,3.94986 -0.66992,6.20898c-0.08741,-0.09102 -0.1,-0.22844 -0.20313,-0.30469c-0.1405,-0.10386 -0.17401,-0.15285 -0.18164,-0.16797c-0.00851,-0.01676 -0.0219,-0.05389 -0.01759,-0.21679c0.01801,-0.67857 -0.09932,-1.91351 -0.27539,-3.31055c-0.15842,-1.25712 -0.37405,-2.57564 -0.58984,-3.6914c0.4241,0.14841 0.75168,0.24254 1.07031,0.22656c0.16633,-0.0084 0.37064,-0.05676 0.53125,-0.21094c0.01362,-0.01307 0.00539,-0.03124 0.01758,-0.04492zm-27.42188,1.60351c0.0024,0.0062 0.0035,0.0093 0.0059,0.01563c0.08485,0.22412 0.19013,0.52714 0.29297,0.84375c0.21855,0.67285 0.78287,2.22823 1.26953,3.5c0.24156,0.63124 0.46247,1.21266 0.6211,1.64063c0.05599,0.15106 0.0921,0.25418 0.13086,0.36133c-0.0032,0.0019 -0.0045,0.002 -0.0078,0.0039c-0.20533,0.12208 -0.49981,0.28549 -0.82227,0.45703c-1.46153,0.77749 -3.69437,2.21896 -4.93164,3.1875c-0.19872,0.15556 -0.37219,0.28541 -0.52344,0.39648c-0.07763,-0.11444 -0.15546,-0.22622 -0.2539,-0.38476c-0.27517,-0.44316 -0.60055,-1.01135 -0.83203,-1.47071c-0.46748,-0.92769 -1.31479,-2.93763 -1.66407,-3.94921l-0.125,-0.35938l1.03516,-0.74219c1.15355,-0.82924 2.69229,-1.80045 3.95508,-2.52929c0.63156,-0.36452 1.19629,-0.67201 1.59961,-0.86524c0.10936,-0.0524 0.16798,-0.07117 0.25,-0.10547l-0.00006,0zm16.00586,5.68551l0,0.002c0.05496,0.18128 0.12519,0.44968 0.20313,0.75977c0.15548,0.6186 0.3346,1.41244 0.47266,2.12109c0.07232,0.37121 0.21316,1.3578 0.32812,2.28125c0.05749,0.46183 0.11041,0.91239 0.14844,1.27539c0.0272,0.25962 0.0346,0.38909 0.04297,0.51758c-0.07847,0.0068 -0.08253,0.01172 -0.25391,0.01172c-0.52146,0 -1.70225,0.13637 -3.91601,0.58594l-0.01563,0.002l-0.0098,0.0039l-3.32223,0.80655l-0.61133,-0.95313c-0.90779,-1.41194 -1.75043,-2.78564 -2.36328,-3.83593c-0.30648,-0.52524 -0.55638,-0.9699 -0.72461,-1.29297c-0.04305,-0.08267 -0.06406,-0.13021 -0.0957,-0.19532c0.0689,-0.03152 0.11052,-0.05463 0.20117,-0.0918c0.37072,-0.15199 0.9024,-0.34128 1.49414,-0.53515c1.18361,-0.38778 2.61809,-0.79291 3.5293,-0.96875c0.66857,-0.12902 1.95348,-0.28463 3.07226,-0.38477c0.55904,-0.05004 1.08208,-0.0848 1.46875,-0.10156c0.14872,-0.0064 0.25235,-0.0075 0.35157,-0.0078l-0.00001,-0.00001zm-28.51562,0.08594c0.00048,0.0083 0.0052,0.01333 0.0059,0.02148c0.00063,0.0036 -0.0026,0.0061 -0.002,0.0098l-0.0039,-0.03128zm31.14062,0.09961c0.24033,0.02984 0.50439,0.06503 0.82227,0.11133c1.59113,0.23174 3.97762,0.79654 4.96289,1.16211l0.39453,0.14648l0.0078,1.27344c0.0053,0.87398 -0.03086,2.21989 -0.07813,2.94531c-0.03922,0.60205 -0.07422,0.93732 -0.12891,1.14844c-0.05576,0.21527 -0.12297,0.33652 -0.30664,0.61133c-0.117,0.17507 -0.20188,0.28608 -0.25976,0.3457c-0.05788,0.05962 -0.07694,0.06549 -0.10352,0.07227c-0.02706,0.0069 -0.31836,-0.008 -0.86328,-0.16601l-0.0059,-0.002l-2.07226,-0.50782l-0.01172,-0.0039l-0.01563,-0.0039c-0.58184,-0.11567 -1.10412,-0.21677 -1.33008,-0.25976c-0.01929,-0.08586 -0.0586,-0.3165 -0.0957,-0.76953c-0.12306,-1.50287 -0.44771,-3.73173 -0.78711,-5.41406c-0.0537,-0.26617 -0.09165,-0.48089 -0.12891,-0.68946l0.00006,0.00003zm-27.88281,0.02734c0.78028,1.88066 1.77874,4.01709 2.44727,5.13867c0.23393,0.39248 0.44636,0.7509 0.59961,1.01367c0.03039,0.05211 0.04787,0.08104 0.07227,0.12305c-0.0059,0.0063 -0.0093,0.0089 -0.01563,0.01563c-0.1603,0.16831 -0.38169,0.39757 -0.62696,0.64649c-0.26557,0.26951 -0.50636,0.54624 -0.6914,0.79101c-0.09187,0.12152 -0.17196,0.23524 -0.23633,0.3457c-0.05575,0.09567 -0.12769,0.22123 -0.14649,0.39454c-0.009,0.0826 -0.0176,0.24819 0.04687,0.41992c-1.4206,-1.59989 -2.62399,-3.39528 -3.42187,-5.28711c-0.36699,-0.87016 -0.61345,-1.90079 -0.87305,-2.91211c0.02408,0.02673 0.03886,0.05839 0.06445,0.08398c0.15796,0.15795 0.32256,0.35113 0.61719,0.40234c0.1685,0.02928 0.31555,-0.0092 0.42578,-0.05273c0.10371,-0.04091 0.19094,-0.09085 0.28516,-0.14453c0.26433,-0.15062 0.75906,-0.49007 1.1875,-0.80273c0.15898,-0.11602 0.18669,-0.12582 0.26562,-0.17578l0.00001,-0.00001zm35.98047,1.6875c-0.0212,0.09535 -0.0527,0.19407 -0.07422,0.28906l0.01366,-0.26757l0.06055,-0.02149zm-23.13867,1.26953c0.14062,0.31804 0.31459,0.67381 0.66211,1.2793c0.45281,0.78895 1.05053,1.7809 1.71875,2.84766c0.4117,0.65725 0.78468,1.26944 1.05469,1.7207c0.09833,0.16435 0.16376,0.27768 0.23046,0.39258c-0.1625,0.10461 -0.36771,0.22977 -0.60742,0.36132c-0.59994,0.32927 -1.7383,1.07066 -2.60547,1.69141l-1.20898,0.86719l-1.31055,-1.25195c-0.72971,-0.69684 -1.77983,-1.80074 -2.63867,-2.75196c-0.42942,-0.47561 -0.81193,-0.91533 -1.08203,-1.24219c-0.08631,-0.10444 -0.13707,-0.17216 -0.19727,-0.25c0.13956,-0.12056 0.3221,-0.26975 0.55469,-0.44726c0.51437,-0.39255 1.19845,-0.87939 1.84766,-1.30078c0.75814,-0.4921 1.76256,-1.04958 2.57226,-1.45313c0.40464,-0.20166 0.76453,-0.36724 1.00586,-0.46093c0.0019,-0.00075 0.002,-0.0012 0.0039,-0.002l0.00001,0.00004zm-8.06641,5.26758c0.88504,1.12944 2.75522,3.06572 4.20703,4.36719c0.51153,0.45855 0.89351,0.82629 1.12891,1.07812c0.05222,0.05587 0.06802,0.08082 0.10351,0.12305c-0.09217,0.11335 -0.20553,0.24769 -0.31835,0.375c-0.10001,0.11284 -0.19671,0.21065 -0.2754,0.2832c-0.04349,-0.01413 -0.08032,-0.02515 -0.13476,-0.04492c-0.18664,-0.06777 -0.43352,-0.16504 -0.70313,-0.27734c-0.53916,-0.22459 -1.17332,-0.51088 -1.64453,-0.74805c-1.97707,-0.99508 -3.81171,-2.46271 -5.39258,-4.17383c0.06185,0.04158 0.12468,0.07977 0.19336,0.0957c0.30226,0.07014 0.60847,0.03332 1.16407,-0.0078c0.15989,-0.01187 0.27658,-0.07743 0.34375,-0.11132c0.0913,-0.04607 0.18447,-0.10147 0.28515,-0.16602c0.20312,-0.13023 0.43494,-0.29933 0.66211,-0.48437l0.38086,-0.30861zm24.07031,0.91406l0.11329,0c0.29215,0 0.74384,0.03748 2.00976,0.20508c0.45021,0.0596 0.68491,0.10462 0.93945,0.15039c-0.04103,0.04163 -0.06355,0.07093 -0.10937,0.11524c-0.33077,0.31981 -0.77845,0.70861 -1.25391,1.09375c-0.66073,0.53522 -1.237,0.91375 -1.74804,1.24414c0.02738,-0.93236 0.05221,-1.86744 0.04883,-2.8086l-0.00001,0zm-2.23632,0.0059l0,4.14254c-0.99934,0.50392 -1.94992,0.94127 -2.92969,1.27539c-0.02839,-0.02814 -0.04534,-0.0416 -0.08008,-0.07813c-0.17391,-0.1828 -0.41509,-0.45756 -0.68555,-0.7832c-0.54112,-0.65153 -1.20903,-1.51094 -1.78906,-2.32226c-0.31237,-0.43694 -0.54494,-0.75372 -0.68555,-0.9668c-0.02096,-0.03176 -0.02555,-0.04404 -0.04102,-0.07031c0.12995,-0.04382 0.27695,-0.08966 0.53711,-0.17187c1.49632,-0.4729 3.43721,-0.85347 4.93164,-0.96875l0.7422,-0.05661zm-8.65821,2.15039c0.057,0.07971 0.10885,0.15373 0.18555,0.26172c0.22878,0.32213 0.53732,0.75899 0.87109,1.23047l0.07422,0.10547l0.0039,0l1.69922,2.32617c-1.23539,0.22453 -2.41841,0.3949 -3.88867,0.38672c-0.01066,-0.0035 -0.02022,-0.0073 -0.0332,-0.01172c-0.05195,-0.01767 -0.12445,-0.04335 -0.19531,-0.07813c-0.16066,-0.07885 -0.37169,-0.19765 -0.59375,-0.33203c-0.43877,-0.26551 -0.92631,-0.59247 -1.25195,-0.82617l-0.87305,-0.64649c0.59049,-0.44295 1.57225,-1.08027 2.49414,-1.61523c0.49905,-0.28959 0.9655,-0.54332 1.30273,-0.70899c0.09016,-0.04429 0.13796,-0.06226 0.20508,-0.0918l0,0.00001zm-5.67968,3.89649c0.01535,0.0091 0.04042,0.02345 0.05664,0.0332c-0.02512,-0.0038 -0.05344,-0.0061 -0.07617,-0.0098c0.007,-0.0085 0.01266,-0.01535 0.01953,-0.02344l0,0.00004zm4.58398,0.41797l0,0.25c0.02345,0 -0.10828,-0.04372 -0.22461,-0.08984c0.0015,-0.0067 0.0039,-0.02149 0.0039,-0.02148c-0.00002,0.00004 0.05473,-0.07426 0.05469,-0.07422c-0.00004,0.00004 0.05085,-0.03519 0.05078,-0.03516c-0.00013,0.00007 0.06076,-0.02349 0.06055,-0.02344c-0.00021,0.00005 0.02221,-0.0031 0.0293,-0.0039c0.01418,-0.0016 0.02046,-0.002 0.02539,-0.002l0,0.00004z"/>
  </g>
 </g>
</svg>