<svg width="24" height="24" viewBox="0 0 24 24" fill="none" xmlns="http://www.w3.org/2000/svg">
<path d="M18 18C19.6569 18 21 16.6569 21 15C21 13.3431 19.6569 12 18 12C16.3431 12 15 13.3431 15 15C15 16.6569 16.3431 18 18 18Z" stroke="#003366" stroke-linecap="round" stroke-linejoin="round"/>
<path d="M11.5 12.0002C13.7091 12.0002 15.5 10.2094 15.5 8.00024C15.5 5.79111 13.7091 4.00024 11.5 4.00024C9.29086 4.00024 7.5 5.79111 7.5 8.00024C7.5 10.2094 9.29086 12.0002 11.5 12.0002Z" stroke="#003366" stroke-linecap="round" stroke-linejoin="round"/>
<path d="M12 14.5002H8C6.93913 14.5002 5.92172 14.9217 5.17157 15.6718C4.42143 16.422 4 17.4394 4 18.5002V20.5002" stroke="#003366" stroke-linecap="round" stroke-linejoin="round"/>
<path d="M21.7001 16.4001L20.8 16.1001" stroke="#003366" stroke-linecap="round" stroke-linejoin="round"/>
<path d="M15.2 13.9001L14.3 13.6001" stroke="#003366" stroke-linecap="round" stroke-linejoin="round"/>
<path d="M16.6001 18.6998L16.9001 17.7998" stroke="#003366" stroke-linecap="round" stroke-linejoin="round"/>
<path d="M19.1001 12.2L19.4001 11.3" stroke="#003366" stroke-linecap="round" stroke-linejoin="round"/>
<path d="M19.6 18.6997L19.2 17.6997" stroke="#003366" stroke-linecap="round" stroke-linejoin="round"/>
<path d="M16.7999 12.3L16.3999 11.3" stroke="#003366" stroke-linecap="round" stroke-linejoin="round"/>
<path d="M14.3 16.5997L15.3 16.1997" stroke="#003366" stroke-linecap="round" stroke-linejoin="round"/>
<path d="M20.7 13.7999L21.7 13.3999" stroke="#003366" stroke-linecap="round" stroke-linejoin="round"/>
</svg>
